<?xml version="1.0" standalone="no"?>
<!DOCTYPE svg PUBLIC "-//W3C//DTD SVG 20010904//EN"
 "http://www.w3.org/TR/2001/REC-SVG-20010904/DTD/svg10.dtd">
<svg version="1.0" xmlns="http://www.w3.org/2000/svg"
 width="384.000000pt" height="384.000000pt" viewBox="0 0 384.000000 384.000000"
 preserveAspectRatio="xMidYMid meet">
<metadata>
Created by potrace 1.14, written by Peter Selinger 2001-2017
</metadata>
<g transform="translate(0.000000,384.000000) scale(0.100000,-0.100000)"
fill="#000000" stroke="none">
<path d="M1148 3498 c-60 -52 0 -249 113 -372 50 -55 143 -116 179 -119 33 -2
41 -28 24 -83 -8 -26 -17 -70 -19 -98 -6 -51 -15 -63 -70 -90 -41 -20 -131
-88 -183 -137 -51 -50 -103 -128 -132 -201 -28 -69 -36 -83 -47 -81 -5 1 -51
21 -103 46 -203 95 -230 106 -269 112 -38 6 -42 4 -61 -27 -39 -64 -21 -97 80
-145 118 -57 247 -113 259 -113 16 0 14 -14 -16 -77 -24 -55 -30 -68 -49 -118
-13 -35 -14 -39 -28 -105 -9 -36 -18 -94 -21 -130 -3 -35 -9 -68 -14 -73 -7
-7 -27 -8 -176 -6 -33 0 -62 0 -65 -1 -3 -1 -46 -2 -97 -3 -102 -2 -123 -13
-129 -63 -3 -34 19 -80 43 -86 10 -2 109 -4 221 -4 203 1 219 -1 220 -34 0
-19 8 -82 17 -135 13 -84 71 -283 86 -299 22 -24 5 -46 -73 -97 -44 -30 -86
-58 -92 -64 -6 -5 -38 -28 -70 -50 -120 -81 -141 -122 -87 -175 25 -26 33 -28
60 -20 29 8 90 41 116 63 35 28 231 157 239 157 6 0 21 -15 33 -33 57 -83 221
-230 317 -284 39 -22 187 -95 231 -114 11 -5 83 -32 160 -61 142 -52 195 -62
237 -40 13 6 86 35 163 62 203 74 382 167 480 250 54 46 147 145 173 182 13
21 31 38 39 38 8 0 32 -13 52 -28 72 -56 257 -179 288 -191 37 -15 61 -5 87
34 23 36 13 76 -27 106 -111 82 -250 179 -258 179 -5 0 -9 4 -9 8 0 4 -13 16
-30 25 -28 17 -29 20 -16 45 41 81 93 284 103 402 3 36 7 67 9 69 2 3 103 5
224 6 249 1 249 1 250 81 0 48 -15 65 -62 70 -49 6 -288 5 -298 -1 -5 -3 -11
-2 -14 3 -2 4 -25 7 -50 5 -25 -1 -46 1 -47 5 0 4 -2 23 -4 42 -6 55 -13 112
-20 150 -12 59 -63 206 -89 253 l-25 44 67 28 c106 45 244 114 279 141 21 16
30 31 29 46 -5 43 -16 65 -41 78 -31 17 -69 6 -198 -55 -50 -24 -99 -45 -107
-47 -8 -2 -17 -6 -20 -10 -3 -4 -26 -16 -50 -27 l-45 -20 -13 32 c-55 132 -89
185 -170 265 -45 45 -87 82 -91 82 -5 0 -33 16 -62 35 -29 20 -58 39 -65 43
-7 4 -16 25 -19 47 -8 65 -28 149 -37 161 -9 13 0 24 20 24 26 0 129 58 172
97 94 86 168 241 164 342 -1 46 -20 70 -56 72 -10 1 -24 2 -30 3 -36 6 -61
-27 -73 -97 -10 -52 -50 -132 -91 -177 -35 -38 -158 -110 -188 -110 -6 0 -34
18 -61 41 -96 79 -175 107 -300 104 -49 -2 -100 -5 -113 -8 -50 -13 -136 -59
-183 -98 l-49 -41 -58 23 c-31 12 -70 31 -87 42 -36 24 -95 87 -95 101 0 5 -6
17 -14 25 -7 9 -21 49 -32 89 -10 40 -26 81 -36 92 -23 24 -71 23 -100 -2z"/>
</g>
</svg>
